<?xml version="1.0" standalone="no"?>
<!DOCTYPE svg PUBLIC "-//W3C//DTD SVG 20010904//EN"
 "http://www.w3.org/TR/2001/REC-SVG-20010904/DTD/svg10.dtd">
<svg version="1.0" xmlns="http://www.w3.org/2000/svg"
 width="10.000000pt" height="16.000000pt" viewBox="0 0 10.000000 16.000000"
 preserveAspectRatio="xMidYMid meet">

<g transform="translate(0.000000,16.000000) scale(0.100000,-0.100000)"
fill="#000000" stroke="none">
<path d="M15 140 c-15 -17 -16 -24 -7 -45 8 -17 8 -33 2 -51 -6 -14 -8 -30 -4
-35 7 -13 81 -11 89 2 10 16 -4 24 -17 11 -7 -7 -16 -12 -21 -12 -4 0 3 11 17
24 25 22 36 43 17 32 -5 -4 -5 10 0 31 5 24 4 42 -3 50 -16 19 -52 16 -73 -7z
m62 -6 c5 -14 -45 -25 -53 -13 -3 5 2 9 11 9 9 0 13 5 9 11 -4 7 1 10 11 7 10
-1 20 -8 22 -14z m-6 -33 c5 8 9 9 9 3 0 -17 -27 -37 -40 -29 -8 5 -7 11 2 22
9 11 13 12 16 3 3 -9 7 -9 13 1z m-31 -51 c0 -5 -4 -10 -10 -10 -5 0 -10 5
-10 10 0 6 5 10 10 10 6 0 10 -4 10 -10z"/>
</g>
</svg>
